<svg width="160" height="64" viewBox="0 0 160 64" fill="none" xmlns="http://www.w3.org/2000/svg">
<path d="M15.2687 24.125V34.9306H19.6639V24.125C19.6639 23.4236 19.4659 22.7986 19.0762 22.25C18.6929 21.7049 18.1562 21.4306 17.4663 21.4306C16.7668 21.4306 16.2269 21.7049 15.8436 22.25C15.4603 22.7986 15.2687 23.4236 15.2687 24.125ZM25.1835 23.7917V46.6667C25.1835 46.8993 25.126 47.1076 25.0174 47.2917C24.9152 47.4792 24.7491 47.5694 24.5191 47.5694H20.3283C20.1143 47.5694 19.9482 47.4826 19.83 47.3056C19.7182 47.1215 19.6639 46.9097 19.6639 46.6667V40.1528H15.2687V46.6944C15.2687 46.9375 15.224 47.1458 15.1409 47.3194C15.0547 47.4861 14.8886 47.5694 14.6426 47.5694H10.2857C10.1324 47.5694 10.0046 47.4861 9.90241 47.3194C9.80019 47.1458 9.74908 46.9375 9.74908 46.6944V23.7917C9.74908 22.7187 9.95351 21.7083 10.3624 20.7639C10.7776 19.8194 11.3398 18.9931 12.0489 18.2778C12.7548 17.566 13.5726 17.0104 14.5021 16.6111C15.438 16.2049 16.4218 16 17.4535 16C18.482 16 19.4627 16.2049 20.3922 16.6111C21.3185 17.0104 22.1426 17.566 22.8581 18.2778C23.58 18.9931 24.1486 19.8194 24.5574 20.7639C24.9727 21.7083 25.1835 22.7187 25.1835 23.7917Z" fill="#999999"/>
<path d="M37.5654 25.2083V28.4444C37.5654 28.743 37.4632 28.9583 37.2588 29.0972C37.0608 29.2292 36.8404 29.2917 36.5944 29.2917H35.5467C34.6843 29.2917 33.9943 29.6042 33.4769 30.2222C32.9562 30.8437 32.6975 31.6944 32.6975 32.7778V46.5139C32.6975 46.9028 32.5889 47.1771 32.378 47.3333C32.164 47.493 31.9596 47.5694 31.7648 47.5694H28.085C27.9062 47.5694 27.756 47.5069 27.6378 47.375C27.526 47.2361 27.4717 47.0382 27.4717 46.7778V32.0139C27.4717 30.5903 27.6826 29.3819 28.1106 28.3889C28.545 27.3889 29.12 26.5799 29.8355 25.9583C30.5573 25.3403 31.3463 24.8854 32.1992 24.5972C33.0488 24.3021 33.8889 24.1528 34.7162 24.1528C35.1826 24.1528 35.601 24.1667 35.9683 24.1944C36.3325 24.2153 36.6647 24.2604 36.9649 24.3333C37.3642 24.4549 37.5654 24.7465 37.5654 25.2083Z" fill="#999999"/>
<path d="M47.3416 34.1805C48.8142 35.0243 50.012 36.0382 50.9319 37.2222C51.8519 38.3993 52.3118 39.7465 52.3118 41.2639C52.3118 42.5625 52.0211 43.7187 51.443 44.7361C50.8616 45.7569 50.0567 46.5555 49.0282 47.1389C47.9964 47.7118 46.7858 48 45.3996 48C43.9749 48 42.7995 47.8125 41.8731 47.4444C40.9532 47.066 40.2377 46.5521 39.7266 45.9028C39.222 45.2465 38.8642 44.5104 38.6534 43.6944C38.449 42.8819 38.3467 42.0382 38.3467 41.1667V40.8611C38.3467 40.4271 38.6821 40.2083 39.3561 40.2083H42.7547C43.1125 40.2083 43.2914 40.441 43.2914 40.9028V41.3333C43.2914 41.8819 43.4766 42.316 43.8536 42.6389C44.2369 42.9653 44.6777 43.125 45.1823 43.125C45.6934 43.125 46.1342 42.9583 46.5111 42.625C46.8944 42.2847 47.0861 41.8194 47.0861 41.2361C47.0861 40.8299 46.9392 40.4687 46.6517 40.1528C46.361 39.8299 45.9809 39.5208 45.5145 39.2222C45.045 38.9167 44.5307 38.6076 43.9685 38.2917C43.4128 37.9687 42.8697 37.618 42.3331 37.2361C41.608 36.7639 40.9564 36.2292 40.3783 35.625C39.8065 35.0139 39.3593 34.316 39.0367 33.5278C38.7109 32.743 38.5512 31.8472 38.5512 30.8472C38.5512 29.5694 38.8386 28.4305 39.42 27.4305C39.9981 26.4305 40.7935 25.6354 41.8093 25.0417C42.8218 24.4514 43.9749 24.1528 45.2718 24.1528C46.7283 24.1528 47.9485 24.441 48.9387 25.0139C49.9353 25.5903 50.6892 26.3854 51.2002 27.4028C51.7113 28.4236 51.9668 29.6076 51.9668 30.9583V31.3333C51.9668 31.5764 51.9062 31.7222 51.788 31.7778C51.6666 31.8264 51.4622 31.8472 51.1747 31.8472H47.9166C47.677 31.8472 47.5109 31.7882 47.4183 31.6667C47.3225 31.5486 47.2777 31.3854 47.2777 31.1805V30.8611C47.2777 30.3055 47.1053 29.8576 46.7667 29.5139C46.4249 29.1736 46.0033 29 45.5018 29C44.9651 29 44.5339 29.191 44.2113 29.5694C43.8951 29.9514 43.7386 30.4132 43.7386 30.9583C43.7386 31.4236 43.8536 31.7986 44.0835 32.0833C44.3199 32.3611 44.7 32.6528 45.2207 32.9583C45.7477 33.2569 46.4536 33.6632 47.3416 34.1805Z" fill="#999999"/>
<path d="M73.4598 39.5973V36.8611C73.4598 35.8993 73.2203 35.191 72.7443 34.7361C72.2748 34.2848 71.7286 34.0556 71.1089 34.0556H69.0646V42.1528H71.2111C71.703 42.1528 72.1183 42.0243 72.4505 41.7639C72.7826 41.507 73.0318 41.1806 73.2043 40.7917C73.3736 40.4028 73.4598 40.007 73.4598 39.5973ZM73.2809 26.8195V24.625C73.2809 23.691 73.0573 23.0104 72.6165 22.5834C72.1726 22.1598 71.6136 21.9445 70.9428 21.9445H69.0646V29.2223H70.8789C71.1855 29.2223 71.5209 29.1598 71.8883 29.0278C72.262 28.8889 72.5846 28.6493 72.8593 28.3056C73.1404 27.9653 73.2809 27.4688 73.2809 26.8195ZM78.5067 24.2778V26.5139C78.5067 27.3473 78.3438 28.1181 78.0211 28.8195C77.6953 29.5243 77.2993 30.1077 76.8329 30.5695C76.3634 31.0348 75.9066 31.3195 75.4658 31.4306C75.7533 31.5139 76.095 31.691 76.4879 31.9584C76.8776 32.2292 77.2673 32.6042 77.6506 33.0834C78.0403 33.566 78.3597 34.1632 78.6089 34.875C78.8548 35.5903 78.9794 36.4306 78.9794 37.4028V40.1806C78.9794 41.2743 78.7814 42.2743 78.3917 43.1806C77.9988 44.0903 77.4654 44.8681 76.7946 45.5139C76.1302 46.1632 75.37 46.6667 74.5203 47.0278C73.677 47.3889 72.7954 47.5695 71.8755 47.5695H64.6566C64.187 47.5695 63.9539 47.2882 63.9539 46.7223V17.375C63.9539 16.7848 64.187 16.4861 64.6566 16.4861H71.2239C72.6709 16.4861 73.939 16.8299 75.0314 17.5139C76.1206 18.2014 76.9734 19.125 77.5867 20.2917C78.2 21.4584 78.5067 22.7882 78.5067 24.2778Z" fill="#4C4C4C"/>
<path d="M90.5174 25.2083V28.4444C90.5174 28.743 90.4152 28.9583 90.2108 29.0972C90.0127 29.2292 89.7923 29.2917 89.5464 29.2917H88.4987C87.6362 29.2917 86.9463 29.6042 86.4288 30.2222C85.9082 30.8437 85.6494 31.6944 85.6494 32.7778V46.5139C85.6494 46.9028 85.5408 47.1771 85.33 47.3333C85.116 47.493 84.9116 47.5694 84.7167 47.5694H81.037C80.8581 47.5694 80.708 47.5069 80.5898 47.375C80.478 47.2361 80.4237 47.0382 80.4237 46.7778V32.0139C80.4237 30.5903 80.6345 29.3819 81.0625 28.3889C81.497 27.3889 82.0719 26.5799 82.7874 25.9583C83.5093 25.3403 84.2983 24.8854 85.1511 24.5972C86.0008 24.3021 86.8409 24.1528 87.6682 24.1528C88.1345 24.1528 88.553 24.1667 88.9203 24.1944C89.2844 24.2153 89.6166 24.2604 89.9169 24.3333C90.3162 24.4549 90.5174 24.7465 90.5174 25.2083Z" fill="#4C4C4C"/>
<path d="M98.7604 29.0278C98.1982 29.0278 97.7383 29.2326 97.3805 29.6389C97.0228 30.0382 96.8439 30.493 96.8439 31V33.5139H100.6V31.0139C100.6 30.4965 100.434 30.0382 100.102 29.6389C99.7698 29.2326 99.3226 29.0278 98.7604 29.0278ZM105.302 40.5139V41.1667C105.302 42.4271 105.021 43.5764 104.459 44.6111C103.903 45.6389 103.124 46.4653 102.121 47.0833C101.115 47.6944 99.9519 48 98.6326 48C97.668 48 96.7608 47.8229 95.9112 47.4722C95.0583 47.1215 94.3077 46.6354 93.6625 46.0139C93.0236 45.3958 92.5189 44.6667 92.1548 43.8333C91.797 43 91.6182 42.1111 91.6182 41.1667V30.9583C91.6182 30.0139 91.797 29.1354 92.1548 28.3194C92.5189 27.5069 93.0236 26.7847 93.6625 26.1528C94.3077 25.5243 95.0583 25.0347 95.9112 24.6805C96.7608 24.3299 97.668 24.1528 98.6326 24.1528C99.6292 24.1528 100.536 24.3299 101.354 24.6805C102.172 25.0347 102.878 25.5243 103.475 26.1528C104.079 26.7847 104.542 27.5069 104.868 28.3194C105.19 29.1354 105.353 30.0139 105.353 30.9583V36.5278C105.353 36.7778 105.277 36.9792 105.123 37.125C104.97 37.2743 104.778 37.3472 104.548 37.3472H96.8439V41.1667C96.8439 41.6667 97.0228 42.125 97.3805 42.5417C97.7383 42.9514 98.1982 43.1528 98.7604 43.1528C99.3481 43.1528 99.7985 42.941 100.115 42.5139C100.437 42.0799 100.6 41.618 100.6 41.125V40.4722C100.6 40.3437 100.645 40.2222 100.741 40.1111C100.833 39.993 100.977 39.9305 101.175 39.9305H104.766C104.935 39.9305 105.066 39.9722 105.162 40.0555C105.254 40.1389 105.302 40.2917 105.302 40.5139Z" fill="#4C4C4C"/>
<path d="M114.188 29.0278C113.625 29.0278 113.165 29.2326 112.808 29.6389C112.45 30.0382 112.271 30.493 112.271 31V33.5139H116.027V31.0139C116.027 30.4965 115.861 30.0382 115.529 29.6389C115.197 29.2326 114.75 29.0278 114.188 29.0278ZM120.729 40.5139V41.1667C120.729 42.4271 120.448 43.5764 119.886 44.6111C119.33 45.6389 118.551 46.4653 117.548 47.0833C116.542 47.6944 115.379 48 114.06 48C113.095 48 112.188 47.8229 111.338 47.4722C110.485 47.1215 109.735 46.6354 109.09 46.0139C108.451 45.3958 107.946 44.6667 107.582 43.8333C107.224 43 107.045 42.1111 107.045 41.1667V30.9583C107.045 30.0139 107.224 29.1354 107.582 28.3194C107.946 27.5069 108.451 26.7847 109.09 26.1528C109.735 25.5243 110.485 25.0347 111.338 24.6805C112.188 24.3299 113.095 24.1528 114.06 24.1528C115.056 24.1528 115.964 24.3299 116.781 24.6805C117.599 25.0347 118.305 25.5243 118.902 26.1528C119.506 26.7847 119.969 27.5069 120.295 28.3194C120.617 29.1354 120.78 30.0139 120.78 30.9583V36.5278C120.78 36.7778 120.704 36.9792 120.55 37.125C120.397 37.2743 120.205 37.3472 119.975 37.3472H112.271V41.1667C112.271 41.6667 112.45 42.125 112.808 42.5417C113.165 42.9514 113.625 43.1528 114.188 43.1528C114.775 43.1528 115.226 42.941 115.542 42.5139C115.864 42.0799 116.027 41.618 116.027 41.125V40.4722C116.027 40.3437 116.072 40.2222 116.168 40.1111C116.261 39.993 116.404 39.9305 116.602 39.9305H120.193C120.362 39.9305 120.493 39.9722 120.589 40.0555C120.681 40.1389 120.729 40.2917 120.729 40.5139Z" fill="#4C4C4C"/>
<path d="M134.7 28.9306L128.35 41.9167L127.851 42.625H134.534C134.677 42.625 134.815 42.691 134.943 42.8195C135.077 42.9514 135.147 43.0903 135.147 43.2361V46.9167C135.147 47.1111 135.083 47.2743 134.955 47.4028C134.834 47.5347 134.693 47.5972 134.534 47.5972H122.524C122.386 47.5972 122.284 47.5382 122.217 47.4167C122.147 47.2986 122.115 47.1458 122.115 46.9583L122.051 44.3333C122.051 44.2778 122.067 44.191 122.102 44.0695C122.134 43.9514 122.182 43.816 122.242 43.6667L128.541 30.2083L128.976 29.5833H122.817C122.68 29.5833 122.568 29.5243 122.485 29.4028C122.399 29.2743 122.357 29.125 122.357 28.9583V25.2222C122.357 25.0278 122.389 24.8715 122.46 24.75C122.536 24.632 122.654 24.5695 122.817 24.5695H134.368C134.655 24.5695 134.802 24.7847 134.802 25.2083V28.2639C134.802 28.3403 134.802 28.4306 134.802 28.5417C134.802 28.6528 134.767 28.7847 134.7 28.9306Z" fill="#4C4C4C"/>
<path d="M143.658 29.0278C143.096 29.0278 142.636 29.2326 142.278 29.6389C141.92 30.0382 141.742 30.493 141.742 31V33.5139H145.498V31.0139C145.498 30.4965 145.332 30.0382 145 29.6389C144.667 29.2326 144.22 29.0278 143.658 29.0278ZM150.2 40.5139V41.1667C150.2 42.4271 149.919 43.5764 149.357 44.6111C148.801 45.6389 148.021 46.4653 147.018 47.0833C146.012 47.6944 144.85 48 143.53 48C142.566 48 141.659 47.8229 140.809 47.4722C139.956 47.1215 139.205 46.6354 138.56 46.0139C137.921 45.3958 137.417 44.6667 137.052 43.8333C136.695 43 136.516 42.1111 136.516 41.1667V30.9583C136.516 30.0139 136.695 29.1354 137.052 28.3194C137.417 27.5069 137.921 26.7847 138.56 26.1528C139.205 25.5243 139.956 25.0347 140.809 24.6805C141.659 24.3299 142.566 24.1528 143.53 24.1528C144.527 24.1528 145.434 24.3299 146.252 24.6805C147.07 25.0347 147.775 25.5243 148.373 26.1528C148.976 26.7847 149.44 27.5069 149.765 28.3194C150.088 29.1354 150.251 30.0139 150.251 30.9583V36.5278C150.251 36.7778 150.174 36.9792 150.021 37.125C149.868 37.2743 149.676 37.3472 149.446 37.3472H141.742V41.1667C141.742 41.6667 141.92 42.125 142.278 42.5417C142.636 42.9514 143.096 43.1528 143.658 43.1528C144.246 43.1528 144.696 42.941 145.012 42.5139C145.335 42.0799 145.498 41.618 145.498 41.125V40.4722C145.498 40.3437 145.543 40.2222 145.639 40.1111C145.731 39.993 145.875 39.9305 146.073 39.9305H149.663C149.833 39.9305 149.963 39.9722 150.059 40.0555C150.152 40.1389 150.2 40.2917 150.2 40.5139Z" fill="#4C4C4C"/>
</svg>
